# xmcd
#
# Track frame offsets:
#	180
#	8388
#	21337
#	39928
#	59055
#	78255
#	98596
#	118221
#	134720
#	150636
#	167097
#	187539
#	203568
#
# Disc length: 2972 seconds
#
# Revision: 3
# Processed by: cddbd v1.4b42PL1 Copyright (c) Steve Scherf et al.
# Submitted via: OrangeCD 4.1
#
DISCID=9a0b9a0d,ab0b9a0d
DTITLE=2Pac - R U Still Down? [Remember Me] - Disc 1
DYEAR=1900
DGENRE=
TTITLE0=Redemption
TTITLE1=Open Fire
TTITLE2=R U Still Down? (Remeber Me)
TTITLE3=Hellrazor
TTITLE4=Thug Style
TTITLE5=Where Do We Go From Here
TTITLE6=I Wonder If Heaven Got A Ghetto
TTITLE7=Nothing To Lose
TTITLE8=I'm Gettin Money
TTITLE9=Lie To Kick It
TTITLE10=Fuck All Y'all
TTITLE11=Let Them Thangs Go
TTITLE12=Definition Of A Thug Nigga
EXTD=
EXTT0=
EXTT1=
EXTT2=
EXTT3=
EXTT4=
EXTT5=
EXTT6=
EXTT7=
EXTT8=
EXTT9=
EXTT10=
EXTT11=
EXTT12=
PLAYORDER=
